<svg xmlns="http://www.w3.org/2000/svg" xmlns:xlink="http://www.w3.org/1999/xlink" width="40.5" height="31.5" viewBox="0 0 40.5 31.5">
  <defs>
    <linearGradient id="linear-gradient" x1="1" x2="0" y2="1" gradientUnits="objectBoundingBox">
      <stop offset="0" stop-color="#8dc63f"/>
      <stop offset="1" stop-color="#009677"/>
    </linearGradient>
  </defs>
  <path id="Icon_awesome-address-card" data-name="Icon awesome-address-card" d="M37.125,2.25H3.375A3.376,3.376,0,0,0,0,5.625v24.75A3.376,3.376,0,0,0,3.375,33.75h33.75A3.376,3.376,0,0,0,40.5,30.375V5.625A3.376,3.376,0,0,0,37.125,2.25ZM12.375,9a4.5,4.5,0,1,1-4.5,4.5A4.5,4.5,0,0,1,12.375,9ZM20.25,25.65A1.474,1.474,0,0,1,18.675,27H6.075A1.474,1.474,0,0,1,4.5,25.65V24.3c0-2.236,2.116-4.05,4.725-4.05h.352a7.242,7.242,0,0,0,5.6,0h.352c2.609,0,4.725,1.814,4.725,4.05ZM36,21.938a.564.564,0,0,1-.562.563H25.313a.564.564,0,0,1-.562-.562V20.813a.564.564,0,0,1,.563-.562H35.438a.564.564,0,0,1,.563.563Zm0-4.5a.564.564,0,0,1-.562.563H25.313a.564.564,0,0,1-.562-.562V16.313a.564.564,0,0,1,.563-.562H35.438a.564.564,0,0,1,.563.563Zm0-4.5a.564.564,0,0,1-.562.563H25.313a.564.564,0,0,1-.562-.562V11.813a.564.564,0,0,1,.563-.562H35.438a.564.564,0,0,1,.563.563Z" transform="translate(0 -2.25)" fill="url(#linear-gradient)"/>
</svg>
