<svg xmlns="http://www.w3.org/2000/svg" width="19.982" height="19.982" viewBox="0 0 19.982 19.982">
  <path id="Icon_awesome-check-circle" data-name="Icon awesome-check-circle" d="M20.544,10.553A9.991,9.991,0,1,1,10.553.563,9.991,9.991,0,0,1,20.544,10.553ZM9.4,15.844,16.81,8.431a.645.645,0,0,0,0-.912L15.9,6.608a.645.645,0,0,0-.912,0L8.942,12.653,6.12,9.831a.645.645,0,0,0-.912,0l-.912.912a.645.645,0,0,0,0,.912l4.19,4.19a.645.645,0,0,0,.912,0Z" transform="translate(-0.563 -0.563)" fill="#009677"/>
</svg>
