<svg xmlns="http://www.w3.org/2000/svg" width="20.461" height="27.281" viewBox="0 0 20.461 27.281">
  <path id="Icon_awesome-file-download" data-name="Icon awesome-file-download" d="M11.935,7.247V0H1.279A1.276,1.276,0,0,0,0,1.279V26a1.276,1.276,0,0,0,1.279,1.279h17.9A1.276,1.276,0,0,0,20.461,26V8.525H13.214A1.283,1.283,0,0,1,11.935,7.247Zm4.074,11.262-5.138,5.1a.909.909,0,0,1-1.281,0l-5.138-5.1a.852.852,0,0,1,.6-1.458H8.525V12.788a.852.852,0,0,1,.853-.853h1.705a.852.852,0,0,1,.853.853v4.263h3.473A.853.853,0,0,1,16.009,18.509ZM20.088,5.595,14.871.373A1.278,1.278,0,0,0,13.966,0h-.325V6.82h6.82V6.5A1.275,1.275,0,0,0,20.088,5.595Z" fill="#50b848"/>
</svg>
